{
  "accessors": [
    {
      "bufferView": 3,
      "componentType": 5126,
      "count": 1797,
      "max": [
        0.8290375471115112,
        1.5394846200942993,
        0.37206190824508667
      ],
      "min": [
        -0.8290375471115112,
        -0.0034186779521405697,
        -0.3176223635673523
      ],
      "type": "VEC3"
    },
    {
      "bufferView": 3,
      "byteOffset": 21564,
      "componentType": 5126,
      "count": 1797,
      "max": [
        0.9994151592254639,
        0.9999814033508301,
        0.999995231628418
      ],
      "min": [
        -0.9994150996208191,
        -0.9999895095825195,
        -0.9998615980148315
      ],
      "type": "VEC3"
    },
    {
      "bufferView": 2,
      "componentType": 5126,
      "count": 1797,
      "max": [
        2.9979875087738037,
        0.9965729713439941
      ],
      "min": [
        2.003335952758789,
        0.003842649981379509
      ],
      "type": "VEC2"
    },
    {
      "bufferView": 1,
      "componentType": 5125,
      "count": 8088,
      "type": "SCALAR"
    },
    {
      "bufferView": 3,
      "byteOffset": 43128,
      "componentType": 5126,
      "count": 226,
      "max": [
        0.21532809734344482,
        1.313541293144226,
        0.38900285959243774
      ],
      "min": [
        -0.21532809734344482,
        0.8719683885574341,
        -0.09152992814779282
      ],
      "type": "VEC3"
    },
    {
      "bufferView": 3,
      "byteOffset": 45840,
      "componentType": 5126,
      "count": 226,
      "max": [
        0.9921694993972778,
        0.9980263710021973,
        0.999995231628418
      ],
      "min": [
        -0.9921613931655884,
        -0.9980344772338867,
        -0.2639541029930115
      ],
      "type": "VEC3"
    },
    {
      "bufferView": 2,
      "byteOffset": 14376,
      "componentType": 5126,
      "count": 226,
      "max": [
        1.0000039339065552,
        0.9933593273162842
      ],
      "min": [
        0.0,
        0.0016697229584679008
      ],
      "type": "VEC2"
    },
    {
      "bufferView": 1,
      "byteOffset": 32352,
      "componentType": 5125,
      "count": 1266,
      "type": "SCALAR"
    },
    {
      "bufferView": 5,
      "componentType": 5126,
      "count": 34,
      "max": [
        1.0,
        0.25,
        1.0,
        0.0,
        1.0,
        1.0,
        0.015030733309686184,
        0.0,
        1.0,
        1.0,
        1.0,
        0.0,
        0.7217479944229126,
        0.9679601788520813,
        1.1258221864700317,
        1.0
      ],
      "min": [
        -7.709090798450197e-15,
        -1.0,
        -1.0,
        0.0,
        -1.0,
        -1.0,
        -0.9238795042037964,
        0.0,
        -1.0,
        -1.0,
        -1.0,
        0.0,
        -0.9120125770568848,
        -0.9916711449623108,
        -0.25227782130241394,
        1.0
      ],
      "type": "MAT4"
    },
    {
      "bufferView": 0,
      "componentType": 5123,
      "count": 1797,
      "type": "VEC4"
    },
    {
      "bufferView": 4,
      "componentType": 5126,
      "count": 1797,
      "max": [
        1.0,
        0.4838709533214569,
        0.25806453824043274,
        0.19354839622974396
      ],
      "min": [
        0.29032260179519653,
        0.0,
        0.0,
        0.0
      ],
      "type": "VEC4"
    },
    {
      "bufferView": 0,
      "byteOffset": 14376,
      "componentType": 5123,
      "count": 226,
      "type": "VEC4"
    },
    {
      "bufferView": 4,
      "byteOffset": 28752,
      "componentType": 5126,
      "count": 226,
      "max": [
        1.0,
        0.4838709533214569,
        0.0,
        0.0
      ],
      "min": [
        0.5161290168762207,
        0.0,
        0.0,
        0.0
      ],
      "type": "VEC4"
    },
    {
      "bufferView": 6,
      "componentType": 5126,
      "count": 1,
      "max": [
        0.0
      ],
      "min": [
        0.0
      ],
      "type": "SCALAR"
    },
    {
      "bufferView": 7,
      "componentType": 5126,
      "count": 1,
      "max": [
        0.5,
        -0.5,
        -0.5,
        0.5
      ],
      "min": [
        0.5,
        -0.5,
        -0.5,
        0.5
      ],
      "type": "VEC4"
    },
    {
      "bufferView": 6,
      "byteOffset": 4,
      "componentType": 5126,
      "count": 1,
      "max": [
        0.0
      ],
      "min": [
        0.0
      ],
      "type": "SCALAR"
    },
    {
      "bufferView": 7,
      "byteOffset": 16,
      "componentType": 5126,
      "count": 1,
      "max": [
        -0.5,
        -0.5,
        -0.5,
        0.5
      ],
      "min": [
        -0.5,
        -0.5,
        -0.5,
        0.5
      ],
      "type": "VEC4"
    }
  ],
  "animations": [
    {
      "channels": [
        {
          "sampler": 0,
          "target": {
            "node": 10,
            "path": "rotation"
          }
        },
        {
          "sampler": 1,
          "target": {
            "node": 26,
            "path": "rotation"
          }
        }
      ],
      "name": "Take 001",
      "samplers": [
        {
          "input": 13,
          "interpolation": "LINEAR",
          "output": 14
        },
        {
          "input": 15,
          "interpolation": "LINEAR",
          "output": 16
        }
      ]
    }
  ],
  "asset": {
    "extras": {
      "author": "gg101 (https://sketchfab.com/gg101)",
      "license": "CC-BY-4.0 (http://creativecommons.org/licenses/by/4.0/)",
      "source": "https://sketchfab.com/3d-models/mario-kart-tour-mario-4d82a0ad1fa54c6787d682359d270f5d",
      "title": "Mario Kart Tour - Mario"
    },
    "generator": "Sketchfab-15.12.0",
    "version": "2.0"
  },
  "bufferViews": [
    {
      "buffer": 0,
      "byteLength": 16184,
      "byteStride": 8,
      "name": "shortBufferViews",
      "target": 34962
    },
    {
      "buffer": 0,
      "byteLength": 37416,
      "byteOffset": 16184,
      "name": "floatBufferViews",
      "target": 34963
    },
    {
      "buffer": 0,
      "byteLength": 16184,
      "byteOffset": 53600,
      "byteStride": 8,
      "name": "floatBufferViews",
      "target": 34962
    },
    {
      "buffer": 0,
      "byteLength": 48552,
      "byteOffset": 69784,
      "byteStride": 12,
      "name": "floatBufferViews",
      "target": 34962
    },
    {
      "buffer": 0,
      "byteLength": 32368,
      "byteOffset": 118336,
      "byteStride": 16,
      "name": "floatBufferViews",
      "target": 34962
    },
    {
      "buffer": 0,
      "byteLength": 2176,
      "byteOffset": 150704,
      "name": "floatBufferViews"
    },
    {
      "buffer": 0,
      "byteLength": 8,
      "byteOffset": 152880,
      "name": "floatBufferViews"
    },
    {
      "buffer": 0,
      "byteLength": 32,
      "byteOffset": 152888,
      "byteStride": 16,
      "name": "floatBufferViews"
    }
  ],
  "buffers": [
    {
      "byteLength": 152920,
      "uri": "scene.bin"
    }
  ],
  "images": [
    {
      "uri": "textures/M_Mario_Body_baseColor.png"
    },
    {
      "uri": "textures/M_Mario_Eye_baseColor.png"
    }
  ],
  "materials": [
    {
      "doubleSided": true,
      "name": "M_Mario_Body",
      "pbrMetallicRoughness": {
        "baseColorTexture": {
          "index": 0
        },
        "metallicFactor": 0.0,
        "roughnessFactor": 0.9577051494623774
      }
    },
    {
      "doubleSided": true,
      "name": "M_Mario_Eye",
      "pbrMetallicRoughness": {
        "baseColorTexture": {
          "index": 1
        },
        "metallicFactor": 0.0,
        "roughnessFactor": 0.9796504225936239
      }
    }
  ],
  "meshes": [
    {
      "name": "Body_M_Mario_Body_0",
      "primitives": [
        {
          "attributes": {
            "JOINTS_0": 9,
            "NORMAL": 1,
            "POSITION": 0,
            "TEXCOORD_0": 2,
            "TEXCOORD_1": 2,
            "WEIGHTS_0": 10
          },
          "indices": 3,
          "material": 0,
          "mode": 4
        }
      ]
    },
    {
      "name": "Body_M_Mario_Eye_0",
      "primitives": [
        {
          "attributes": {
            "JOINTS_0": 11,
            "NORMAL": 5,
            "POSITION": 4,
            "TEXCOORD_0": 6,
            "TEXCOORD_1": 6,
            "WEIGHTS_0": 12
          },
          "indices": 7,
          "material": 1,
          "mode": 4
        }
      ]
    }
  ],
  "nodes": [
    {
      "children": [
        1
      ],
      "matrix": [
        1.0,
        0.0,
        0.0,
        0.0,
        0.0,
        2.220446049250313e-16,
        -1.0,
        0.0,
        0.0,
        1.0,
        2.220446049250313e-16,
        0.0,
        0.0,
        0.0,
        0.0,
        1.0
      ],
      "name": "Sketchfab_model"
    },
    {
      "children": [
        2
      ],
      "matrix": [
        0.009999999776482582,
        0.0,
        0.0,
        0.0,
        0.0,
        0.0,
        0.009999999776482582,
        0.0,
        0.0,
        -0.009999999776482582,
        0.0,
        0.0,
        0.0,
        0.0,
        0.0,
        1.0
      ],
      "name": "Mario.fbx"
    },
    {
      "children": [
        3
      ],
      "name": "Object_2"
    },
    {
      "children": [
        4
      ],
      "name": "RootNode"
    },
    {
      "children": [
        5,
        7,
        8,
        6,
        42
      ],
      "name": "Object_4"
    },
    {
      "children": [
        9
      ],
      "name": "_rootJoint"
    },
    {
      "matrix": [
        0.9999999999999999,
        6.617444900424222e-24,
        -9.860761315262648e-32,
        0.0,
        -6.617444900424218e-24,
        0.9999999999999999,
        4.371138822550561e-08,
        0.0,
        3.87865316255962e-31,
        -4.371138822550561e-08,
        0.9999999999999999,
        0.0,
        4.963083675318166e-24,
        1.1102230246251565e-16,
        0.0,
        1.0
      ],
      "name": "Object_6"
    },
    {
      "mesh": 0,
      "name": "Object_7",
      "skin": 0
    },
    {
      "mesh": 1,
      "name": "Object_8",
      "skin": 0
    },
    {
      "children": [
        10,
        17
      ],
      "name": "Skl_Root_00",
      "rotation": [
        8.146034247147327e-08,
        0.0,
        0.0,
        1.0
      ],
      "translation": [
        2.4424906409404546e-17,
        0.6469999551773071,
        -0.039999961853027344
      ]
    },
    {
      "children": [
        11,
        14
      ],
      "name": "Hip_01",
      "rotation": [
        -0.5,
        0.5,
        0.5,
        -0.4999999701976776
      ],
      "translation": [
        0.0,
        -0.009999990463256836,
        3.725290298461914e-09
      ]
    },
    {
      "children": [
        12
      ],
      "name": "LegL_02",
      "rotation": [
        -8.031563097142826e-18,
        -7.155654719342119e-25,
        2.6469779601696886e-23,
        1.0
      ],
      "translation": [
        0.09498733282089233,
        0.022767402231693268,
        -0.11499998718500137
      ]
    },
    {
      "children": [
        13
      ],
      "name": "KneeL_03",
      "rotation": [
        -8.031563097142826e-18,
        -2.7157790951072633e-24,
        2.6469779601696886e-23,
        1.0
      ],
      "translation": [
        0.22254055738449097,
        1.862645149230957e-09,
        0.0
      ]
    },
    {
      "name": "FootL_04",
      "rotation": [
        -5.862236677399392e-16,
        5.8622361480038e-16,
        0.7071068286895752,
        0.7071068286895752
      ],
      "translation": [
        0.16112390160560608,
        -1.862645149230957e-09,
        -3.725290298461914e-08
      ]
    },
    {
      "children": [
        15
      ],
      "name": "LegR_05",
      "rotation": [
        5.324017121740725e-24,
        -1.2629737699594449e-16,
        1.0,
        -4.371138828673793e-08
      ],
      "translation": [
        0.09498697519302368,
        0.02276739850640297,
        0.11499998718500137
      ]
    },
    {
      "children": [
        16
      ],
      "name": "KneeR_06",
      "rotation": [
        -1.2629737699594449e-16,
        -3.503084761053632e-24,
        -6.617444900424222e-24,
        1.0
      ],
      "translation": [
        -0.2225409746170044,
        1.862645149230957e-09,
        0.0
      ]
    },
    {
      "name": "FootR_07",
      "rotation": [
        4.912388753424996e-16,
        -4.912388224029404e-16,
        0.7071068286895752,
        0.7071068286895752
      ],
      "translation": [
        -0.16112399101257324,
        -1.862645149230957e-09,
        0.0
      ]
    },
    {
      "children": [
        18
      ],
      "name": "Spine1_08",
      "rotation": [
        0.5,
        0.5,
        0.5,
        0.4999999701976776
      ],
      "translation": [
        0.0,
        0.009999990463256836,
        -3.725290298461914e-09
      ]
    },
    {
      "children": [
        19,
        26,
        34
      ],
      "name": "Spine2_09",
      "rotation": [
        -8.031563097142826e-18,
        7.155654719342119e-25,
        -2.6469779601696886e-23,
        1.0
      ],
      "translation": [
        0.10501265525817871,
        3.725290298461914e-09,
        0.0
      ]
    },
    {
      "children": [
        20,
        21,
        22,
        23,
        24,
        25
      ],
      "name": "Head_010",
      "rotation": [
        -8.031563097142826e-18,
        2.7157790951072633e-24,
        -2.6469779601696886e-23,
        1.0
      ],
      "translation": [
        0.1499999761581421,
        0.0,
        -6.617444900424222e-24
      ]
    },
    {
      "name": "Cap_011",
      "rotation": [
        -0.5879378318786621,
        -0.39284747838974,
        0.39284747838974,
        0.5879377722740173
      ],
      "translation": [
        0.28999996185302734,
        3.725290298461914e-09,
        6.617444900424222e-24
      ]
    },
    {
      "name": "HairL_012",
      "rotation": [
        0.1294095367193222,
        0.2241438627243042,
        0.8365163207054138,
        -0.4829629063606262
      ],
      "translation": [
        0.057987332344055176,
        -0.10000002384185791,
        0.12000001221895218
      ]
    },
    {
      "name": "HairR_013",
      "rotation": [
        0.2241438627243042,
        -0.129409521818161,
        0.4829629063606262,
        0.8365163207054138
      ],
      "translation": [
        0.057987332344055176,
        -0.09999999403953552,
        -0.11999998241662979
      ]
    },
    {
      "name": "Mouth_014",
      "rotation": [
        0.6087614297866821,
        0.7933533191680908,
        3.467857823125087e-08,
        2.660980591429052e-08
      ],
      "translation": [
        0.12000000476837158,
        0.020000001415610313,
        0.0
      ]
    },
    {
      "name": "MustacheL_015",
      "rotation": [
        -0.4624127447605133,
        -0.31120386719703674,
        -0.4523124098777771,
        0.696232795715332
      ],
      "translation": [
        0.11749386787414551,
        0.3064766526222229,
        0.05585603415966034
      ]
    },
    {
      "name": "MustacheR_016",
      "rotation": [
        0.3112039268016815,
        -0.4624127447605133,
        0.696232795715332,
        0.4523123502731323
      ],
      "translation": [
        0.11749732494354248,
        0.3064769506454468,
        -0.055855996906757355
      ]
    },
    {
      "children": [
        27
      ],
      "name": "ShoulderL_017",
      "rotation": [
        0.5,
        0.4999999701976776,
        0.5,
        -0.5
      ],
      "translation": [
        0.07999998331069946,
        0.009999999776482582,
        0.030000003054738045
      ]
    },
    {
      "children": [
        28
      ],
      "name": "ArmL_018",
      "rotation": [
        3.3528251784575595e-37,
        4.334426409777865e-22,
        -7.735337808386766e-16,
        1.0
      ],
      "translation": [
        0.13999998569488525,
        0.0,
        0.0
      ]
    },
    {
      "children": [
        29
      ],
      "name": "ElbowL_019",
      "rotation": [
        1.3234889800848443e-23,
        4.334426409777865e-22,
        -8.290449320699344e-16,
        1.0
      ],
      "translation": [
        0.14979997277259827,
        -1.1102230246251565e-16,
        0.0
      ]
    },
    {
      "children": [
        30,
        32
      ],
      "name": "HandL_020",
      "rotation": [
        3.53857255878604e-37,
        4.268251960773623e-22,
        -8.290449320699344e-16,
        1.0
      ],
      "translation": [
        0.14074832201004028,
        0.0,
        1.862645149230957e-09
      ]
    },
    {
      "children": [
        31
      ],
      "name": "Finger1L_021",
      "rotation": [
        1.3234889800848443e-23,
        4.268251960773623e-22,
        -8.290449320699344e-16,
        1.0
      ],
      "translation": [
        0.1812000274658203,
        0.06126415729522705,
        7.845461368560791e-06
      ]
    },
    {
      "name": "Finger2L_022",
      "rotation": [
        3.5660034806926453e-37,
        4.301339185275744e-22,
        -8.290449320699344e-16,
        1.0
      ],
      "translation": [
        0.07999998331069946,
        1.1102230246251565e-16,
        -3.469446951953614e-18
      ]
    },
    {
      "children": [
        33
      ],
      "name": "Thumb1L_023",
      "rotation": [
        3.051204487501229e-23,
        -0.2588190734386444,
        1.1601120211951372e-23,
        0.965925931930542
      ],
      "translation": [
        0.14560467004776,
        -0.040033578872680664,
        0.1164751648902893
      ]
    },
    {
      "name": "Thumb2L_024",
      "rotation": [
        -3.552713678800501e-15,
        -3.1086244689504383e-15,
        2.3161046107432102e-23,
        1.0
      ],
      "translation": [
        0.052815020084381104,
        -1.1920928955078125e-07,
        2.9802322387695313e-08
      ]
    },
    {
      "children": [
        35
      ],
      "name": "ShoulderR_025",
      "rotation": [
        0.5,
        -0.4999999701976776,
        0.5,
        0.5
      ],
      "translation": [
        0.08000034093856812,
        0.009999996051192284,
        -0.029999995604157448
      ]
    },
    {
      "children": [
        36
      ],
      "name": "ArmR_026",
      "rotation": [
        2.6469779601696886e-23,
        -7.279189390466644e-22,
        -8.129830698076247e-16,
        1.0
      ],
      "translation": [
        -0.13999998569488525,
        -1.1102230246251565e-16,
        0.0
      ]
    },
    {
      "children": [
        37
      ],
      "name": "ElbowR_027",
      "rotation": [
        -5.9447569495899665e-37,
        -7.312276614968765e-22,
        -8.129830698076247e-16,
        1.0
      ],
      "translation": [
        -0.14979997277259827,
        0.0,
        0.0
      ]
    },
    {
      "children": [
        38,
        40
      ],
      "name": "HandR_028",
      "rotation": [
        1.3234889800848443e-23,
        -7.312276614968765e-22,
        -8.129830698076247e-16,
        1.0
      ],
      "translation": [
        -0.14074799418449402,
        1.1102230246251565e-16,
        -3.469446951953614e-18
      ]
    },
    {
      "children": [
        39
      ],
      "name": "Finger1R_029",
      "rotation": [
        2.6469779601696886e-23,
        -7.345363839470886e-22,
        -8.129830698076247e-16,
        1.0
      ],
      "translation": [
        -0.18119999766349792,
        -0.061263978481292725,
        -7.802620530128479e-06
      ]
    },
    {
      "name": "Finger2R_030",
      "rotation": [
        1.3234889800848443e-23,
        -7.279189390466644e-22,
        -8.129830698076247e-16,
        1.0
      ],
      "translation": [
        -0.07999998331069946,
        0.0,
        0.0
      ]
    },
    {
      "children": [
        41
      ],
      "name": "Thumb1R_031",
      "rotation": [
        1.0617587639985809e-15,
        -0.2588190734386444,
        3.962537864835285e-15,
        0.965925931930542
      ],
      "translation": [
        -0.14560499787330627,
        0.04003399610519409,
        -0.1164751946926117
      ]
    },
    {
      "name": "Thumb2R_032",
      "rotation": [
        3.2836335179824616e-29,
        -9.242606680004428e-15,
        3.552713678800501e-15,
        1.0
      ],
      "translation": [
        -0.052815139293670654,
        0.0,
        -3.129243850708008e-07
      ]
    },
    {
      "name": "Body",
      "rotation": [
        8.146034247147327e-08,
        0.0,
        0.0,
        1.0
      ]
    }
  ],
  "samplers": [
    {
      "magFilter": 9729,
      "minFilter": 9987,
      "wrapS": 10497,
      "wrapT": 10497
    }
  ],
  "scene": 0,
  "scenes": [
    {
      "name": "Sketchfab_Scene",
      "nodes": [
        0
      ]
    }
  ],
  "skins": [
    {
      "inverseBindMatrices": 8,
      "joints": [
        5,
        9,
        10,
        11,
        12,
        13,
        14,
        15,
        16,
        17,
        18,
        19,
        20,
        21,
        22,
        23,
        24,
        25,
        26,
        27,
        28,
        29,
        30,
        31,
        32,
        33,
        34,
        35,
        36,
        37,
        38,
        39,
        40,
        41
      ],
      "skeleton": 5
    }
  ],
  "textures": [
    {
      "sampler": 0,
      "source": 0
    },
    {
      "sampler": 0,
      "source": 1
    }
  ]
}
